<?xml version="1.0" encoding="UTF-8"?>
<!DOCTYPE svg PUBLIC "-//W3C//DTD SVG 1.1//EN" "http://www.w3.org/Graphics/SVG/1.1/DTD/svg11.dtd">
<svg xmlns="http://www.w3.org/2000/svg" version="1.1" width="128px" height="94px" style="shape-rendering:geometricPrecision; text-rendering:geometricPrecision; image-rendering:optimizeQuality; fill-rule:evenodd; clip-rule:evenodd" xmlns:xlink="http://www.w3.org/1999/xlink">
<g><path style="opacity:0.937" fill="#d42e01" d="M 123.5,20.5 C 83.5,20.5 43.5,20.5 3.5,20.5C 2.54472,14.5907 2.21139,8.59074 2.5,2.5C 14.1168,4.85648 25.7834,7.02315 37.5,9C 55.4976,10.9821 73.4976,10.9821 91.5,9C 102.55,6.98645 113.55,4.81978 124.5,2.5C 124.789,8.59074 124.455,14.5907 123.5,20.5 Z"/></g>
<g><path style="opacity:0.991" fill="#d02d02" d="M 3.5,20.5 C 43.5,20.5 83.5,20.5 123.5,20.5C 123.817,23.5719 123.484,26.5719 122.5,29.5C 121.583,30.1272 120.583,30.4606 119.5,30.5C 106.5,30.5 93.5,30.5 80.5,30.5C 74.8094,23.5467 67.4761,21.0467 58.5,23C 50.907,25.0916 46.2404,29.925 44.5,37.5C 43.5386,39.2646 43.2053,41.2646 43.5,43.5C 34.1667,43.5 24.8333,43.5 15.5,43.5C 14.1061,37.0998 10.4394,32.4332 4.5,29.5C 3.51592,26.5719 3.18259,23.5719 3.5,20.5 Z"/></g>
<g><path style="opacity:1" fill="#fefaf9" d="M 80.5,30.5 C 81.7772,32.1484 82.7772,33.9817 83.5,36C 80.1319,37.5506 76.6319,38.7173 73,39.5C 71.2252,38.7297 69.7252,37.563 68.5,36C 65.8333,35.3333 63.1667,35.3333 60.5,36C 59.6195,36.7083 58.9528,37.5416 58.5,38.5C 57.346,44.987 57.1794,51.6536 58,58.5C 60.0527,62.2916 63.2194,63.4582 67.5,62C 69.4441,60.5795 71.2774,59.0795 73,57.5C 76.4307,58.8111 79.9307,59.8111 83.5,60.5C 81.8658,68.1342 77.1992,72.8009 69.5,74.5C 65.8004,75.758 62.1337,75.758 58.5,74.5C 52.9917,73.3321 48.825,70.3321 46,65.5C 44.5828,56.2479 44.0828,46.9146 44.5,37.5C 46.2404,29.925 50.907,25.0916 58.5,23C 67.4761,21.0467 74.8094,23.5467 80.5,30.5 Z"/></g>
<g><path style="opacity:0.99" fill="#c62b01" d="M 80.5,30.5 C 93.5,30.5 106.5,30.5 119.5,30.5C 112.242,36.9406 109.575,44.9406 111.5,54.5C 93.8333,54.5 76.1667,54.5 58.5,54.5C 58.5,49.1667 58.5,43.8333 58.5,38.5C 58.9528,37.5416 59.6195,36.7083 60.5,36C 63.1667,35.3333 65.8333,35.3333 68.5,36C 69.7252,37.563 71.2252,38.7297 73,39.5C 76.6319,38.7173 80.1319,37.5506 83.5,36C 82.7772,33.9817 81.7772,32.1484 80.5,30.5 Z"/></g>
<g><path style="opacity:0.985" fill="#bc2b04" d="M 44.5,37.5 C 44.0828,46.9146 44.5828,56.2479 46,65.5C 48.825,70.3321 52.9917,73.3321 58.5,74.5C 40.6744,75.4968 22.6744,75.8301 4.5,75.5C 4.33537,72.4816 4.50204,69.4816 5,66.5C 13.8195,61.1909 17.3195,53.5242 15.5,43.5C 24.8333,43.5 34.1667,43.5 43.5,43.5C 43.2053,41.2646 43.5386,39.2646 44.5,37.5 Z"/></g>
<g><path style="opacity:0.985" fill="#bb2902" d="M 58.5,38.5 C 58.5,43.8333 58.5,49.1667 58.5,54.5C 76.1667,54.5 93.8333,54.5 111.5,54.5C 113.674,59.5174 117.174,63.5174 122,66.5C 122.498,69.4816 122.665,72.4816 122.5,75.5C 104.659,75.8301 86.9921,75.4967 69.5,74.5C 77.1992,72.8009 81.8658,68.1342 83.5,60.5C 79.9307,59.8111 76.4307,58.8111 73,57.5C 71.2774,59.0795 69.4441,60.5795 67.5,62C 63.2194,63.4582 60.0527,62.2916 58,58.5C 57.1794,51.6536 57.346,44.987 58.5,38.5 Z"/></g>
<g><path style="opacity:0.969" fill="#b12600" d="M 58.5,74.5 C 62.1337,75.758 65.8004,75.758 69.5,74.5C 86.9921,75.4967 104.659,75.8301 122.5,75.5C 123.557,81.1766 123.557,86.8433 122.5,92.5C 104.219,88.622 85.7186,86.9554 67,87.5C 45.9949,87.2644 25.1616,88.931 4.5,92.5C 3.44279,86.8433 3.44279,81.1766 4.5,75.5C 22.6744,75.8301 40.6744,75.4968 58.5,74.5 Z"/></g>
</svg>
